<svg width="138" height="16" viewBox="0 0 138 16" fill="none" xmlns="http://www.w3.org/2000/svg">
<g id="Gold Token">
<path d="M7.98195 14.8002C3.85147 14.8002 0.970215 12.1406 0.970215 7.72803C0.970215 3.27517 3.85147 0.655847 7.98195 0.655847H14.087V2.52967H8.06254C5.06039 2.52967 2.90449 4.3229 2.90449 7.70788C2.90449 11.113 5.06039 12.9264 8.06254 12.9264H12.2535V9.27947H6.18872V7.40565H14.1877V14.8002H7.98195Z" fill="white"/>
<path d="M23.8651 15.042C19.6742 15.042 16.672 11.9391 16.672 7.70788C16.672 3.51696 19.6742 0.414062 23.8651 0.414062H23.8852C28.0963 0.414062 31.1186 3.51696 31.1186 7.70788C31.1186 11.9391 28.0963 15.042 23.8852 15.042H23.8651ZM18.6264 7.72803C18.6264 10.9921 20.8226 13.1682 23.8651 13.1682H23.8852C26.9478 13.1682 29.1642 10.9921 29.1642 7.72803C29.1642 4.50424 26.9478 2.28789 23.8852 2.28789H23.8651C20.8226 2.28789 18.6264 4.50424 18.6264 7.72803Z" fill="white"/>
<path d="M33.7719 14.8002V0.655847H35.7465V12.9264H43.9671V14.8002H33.7719Z" fill="white"/>
<path d="M46.1484 14.8002V0.655847H51.8706C56.404 0.655847 58.7413 3.23487 58.7413 7.72803C58.7413 12.2212 56.404 14.8002 51.8706 14.8002H46.1484ZM48.0827 12.9465H51.8505C55.175 12.9465 56.7869 11.0324 56.7869 7.70788C56.7869 4.4035 55.175 2.50952 51.8505 2.50952H48.0827V12.9465Z" fill="white"/>
<path d="M71.4367 14.8002V2.52967H65.7951V0.655847H79.0327V2.52967H73.4112V14.8002H71.4367Z" fill="white"/>
<path d="M86.7312 15.042C82.5403 15.042 79.5382 11.9391 79.5382 7.70788C79.5382 3.51696 82.5403 0.414062 86.7312 0.414062H86.7514C90.9625 0.414062 93.9848 3.51696 93.9848 7.70788C93.9848 11.9391 90.9625 15.042 86.7514 15.042H86.7312ZM81.4926 7.72803C81.4926 10.9921 83.6888 13.1682 86.7312 13.1682H86.7514C89.814 13.1682 92.0303 10.9921 92.0303 7.72803C92.0303 4.50424 89.814 2.28789 86.7514 2.28789H86.7312C83.6888 2.28789 81.4926 4.50424 81.4926 7.72803Z" fill="white"/>
<path d="M106.128 14.8002L98.5724 8.23174V14.8002H96.6381V0.655847H98.5724V7.22431L106.148 0.655847H108.808L100.648 7.60713L108.868 14.8002H106.128Z" fill="white"/>
<path d="M110.844 14.8002V0.655847H121.745V2.52967H112.779V6.78104H121.745V8.65486H112.779V12.9264H121.745V14.8002H110.844Z" fill="white"/>
<path d="M124.913 14.8002V0.655847H127.976L135.27 12.3219V0.655847H137.184V14.8002H134.584L126.847 2.40878V14.8002H124.913Z" fill="white"/>
</g>
</svg>
