<svg width="160" height="120" viewBox="0 0 160 120" fill="none" xmlns="http://www.w3.org/2000/svg">
<g id="Group 11054">
<path id="Vector" d="M25.3198 26.5198C34.2498 17.7698 47.0297 13.1498 62.2697 13.1498H73.3098C101.69 13.1498 118.63 26.4998 118.63 48.8698C118.63 71.2398 100.92 80.6698 86.0598 84.4398L46.1298 94.2998C27.0598 98.7698 14.2197 107.38 7.70975 120H21.6198C27.0298 113.23 35.6298 108.36 47.3898 105.46L86.7697 95.8598C117.9 87.9498 131.2 73.8298 131.2 48.6398C131.2 19.7498 109.76 1.7998 75.2397 1.7998H60.5998C28.2498 1.7998 3.57977 21.9298 0.00976562 50.3598H13.2898C14.5798 41.2898 18.7598 32.9598 25.3298 26.5298L25.3198 26.5198Z" fill="white"/>
</g>
</svg>
