<svg width="177" height="18" viewBox="0 0 177 18" fill="none" xmlns="http://www.w3.org/2000/svg">
<g id="Group 10831">
<path id="Vector" d="M88.1975 4.05013V1.12988H72.7612V18.0001H88.1975V15.0782H76.1522H75.9059V14.8319V11.247V11.0007H76.1522H88.1975V8.07872H76.1522H75.9059V7.83243V4.29643V4.05013H76.1522H88.1975Z" fill="white"/>
<path id="Vector_2" d="M95.3931 1.12988H92.127V18.0001H95.3931V1.12988Z" fill="white"/>
<path id="Vector_3" d="M57.4377 18.0004V8.86513C57.4377 6.96891 56.7443 5.14525 55.4841 3.72815C54.04 2.10186 51.8502 1.13184 49.6284 1.13184H42.1279V18.0004H45.3873V4.40127H49.4783C52.0662 4.40127 54.1699 6.50669 54.1699 9.09289V18.0004H57.4377Z" fill="white"/>
<path id="Vector_4" d="M68.9958 18.0001V8.69618C68.9958 6.79997 68.3024 4.9763 67.0422 3.5592C65.5981 1.93291 63.4084 0.962891 61.1866 0.962891H57.438V4.23232H61.0364C63.6243 4.23232 65.728 6.33774 65.728 8.92395V18.0001H68.9958Z" fill="white"/>
<path id="Vector_5" d="M7.3706 18.0001H10.6873V4.29643V4.05013H10.9336H18.0326V1.12988H0V4.05013H7.1243H7.3706V4.29643V18.0001Z" fill="white"/>
<path id="Vector_6" d="M27.8512 18.0001H30.2501C32.8734 18.0001 35.0598 17.2258 36.5714 15.7631C38.0998 14.2836 38.9079 12.1225 38.9079 9.51607C38.9079 4.26605 35.6722 1.12988 30.2501 1.12988H27.8512C22.4308 1.12988 19.1934 4.26437 19.1934 9.51607C19.1934 12.1242 20.0015 14.2836 21.5299 15.7631C23.0415 17.2275 25.2279 18.0001 27.8512 18.0001ZM27.9001 4.05013H30.1759C31.9625 4.05013 33.3661 4.52416 34.3428 5.46046C35.3348 6.40857 35.8375 7.78179 35.8375 9.53967C35.8375 13.0605 33.7743 15.0782 30.1742 15.0782H27.8984C24.3152 15.0782 22.2604 13.0588 22.2604 9.53967C22.2604 6.02054 24.3152 4.05013 27.8984 4.05013H27.9001Z" fill="white"/>
<path id="Vector_7" d="M142.387 4.71312L146.807 18.0001H151.319L156.438 1.12988H153.119L149.265 14.2094L149.044 14.9567L148.796 14.2195L144.374 1.12988H140.028L135.51 14.368L135.257 15.1102L135.04 14.3561L131.232 1.12988H127.865L132.863 18.0001H137.425L141.919 4.71143L142.154 4.01636L142.387 4.71312Z" fill="white"/>
<path id="Vector_8" d="M160.789 13.4972H170.82L170.887 13.6372L172.972 17.9982H176.485L168.53 1.12793H163.252L155.201 17.9982H158.638L160.723 13.6372L160.79 13.4972H160.789ZM162.157 10.3964L165.595 3.2232L165.819 2.75589L166.04 3.2232L169.43 10.3964L169.595 10.7473H161.988L162.157 10.3947V10.3964Z" fill="white"/>
<path id="Vector_9" d="M121.521 13.2123L122.938 17.9984H126.333L124.458 11.667C124.244 10.9433 123.839 10.4018 123.254 10.0593L122.773 9.77757L123.304 9.61224C123.483 9.55657 123.662 9.48233 123.851 9.38448L123.871 9.37435C123.897 9.36085 123.922 9.34736 123.947 9.33386L123.956 9.32711C124.865 8.81088 125.465 7.72952 125.6 6.36135C125.605 6.30567 125.61 6.25339 125.614 6.20446V6.17913L125.617 6.14878C125.627 5.98345 125.627 5.87209 125.626 5.83666C125.626 5.82823 125.626 5.81812 125.626 5.80969C125.626 2.7916 123.834 1.12988 120.58 1.12988H108.558V18.0001H111.726V11.3971H119.229C120.161 11.3971 120.998 11.9403 121.363 12.7822C121.422 12.9188 121.474 13.0639 121.518 13.214L121.521 13.2123ZM120.064 8.52412H111.73V4.0248H120.015C121.668 4.0248 122.437 4.73165 122.437 6.24998C122.437 7.7683 121.617 8.52412 120.064 8.52412Z" fill="white"/>
</g>
</svg>
