<svg width="155" height="16" viewBox="0 0 155 16" fill="none" xmlns="http://www.w3.org/2000/svg">
<g id="Group 10830">
<path id="Vector" d="M77.3674 3.24897V0.708008H63.936V15.3871H77.3674V12.8447H66.8866H66.6722V12.6304V9.51108V9.29677H66.8866H77.3674V6.75433H66.8866H66.6722V6.54002V3.46328V3.24897H66.8866H77.3674Z" fill="white"/>
<path id="Vector_2" d="M83.6281 0.708008H80.7861V15.3871H83.6281V0.708008Z" fill="white"/>
<path id="Vector_3" d="M50.6026 15.3866V7.43787C50.6026 5.78794 49.9993 4.20113 48.9027 2.96809C47.6462 1.55302 45.7408 0.708984 43.8076 0.708984H37.2812V15.3866H40.1173V3.55378H43.677C45.9287 3.55378 47.7592 5.38575 47.7592 7.63605V15.3866H50.6026Z" fill="white"/>
<path id="Vector_4" d="M60.6597 15.3869V7.29139C60.6597 5.64145 60.0564 4.05465 58.9598 2.8216C57.7033 1.40653 55.798 0.5625 53.8647 0.5625H50.603V3.4073H53.7341C55.9859 3.4073 57.8164 5.23926 57.8164 7.48957V15.3869H60.6597Z" fill="white"/>
<path id="Vector_5" d="M7.0383 15.3871H9.92424V3.46328V3.24897H10.1385H16.3155V0.708008H0.625V3.24897H6.82399H7.0383V3.46328V15.3871Z" fill="white"/>
<path id="Vector_6" d="M24.8585 15.3871H26.9459C29.2285 15.3871 31.1309 14.7134 32.4462 13.4407C33.7761 12.1533 34.4792 10.2729 34.4792 8.00499C34.4792 3.43685 31.6638 0.708008 26.9459 0.708008H24.8585C20.1421 0.708008 17.3252 3.43538 17.3252 8.00499C17.3252 10.2744 18.0283 12.1533 19.3583 13.4407C20.6735 14.7148 22.5759 15.3871 24.8585 15.3871ZM24.9011 3.24897H26.8813C28.4358 3.24897 29.6571 3.66144 30.5071 4.47613C31.3702 5.30109 31.8076 6.49597 31.8076 8.02553C31.8076 11.0891 30.0124 12.8447 26.8799 12.8447H24.8996C21.7818 12.8447 19.9939 11.0876 19.9939 8.02553C19.9939 4.96346 21.7818 3.24897 24.8996 3.24897H24.9011Z" fill="white"/>
<path id="Vector_7" d="M124.518 3.82585L128.364 15.3871H132.291L136.744 0.708008H133.857L130.503 12.0887L130.311 12.739L130.095 12.0975L126.247 0.708008H122.466L118.535 12.2267L118.315 12.8726L118.125 12.2164L114.812 0.708008H111.882L116.232 15.3871H120.201L124.112 3.82438L124.316 3.21959L124.518 3.82585Z" fill="white"/>
<path id="Vector_8" d="M140.53 11.4688H149.258L149.317 11.5906L151.131 15.3852H154.188L147.266 0.706055H142.673L135.668 15.3852H138.659L140.473 11.5906L140.532 11.4688H140.53ZM141.721 8.77076L144.712 2.52919L144.907 2.12258L145.1 2.52919L148.049 8.77076L148.193 9.07609H141.574L141.721 8.76929V8.77076Z" fill="white"/>
<path id="Vector_9" d="M106.363 11.2212L107.596 15.3857H110.549L108.919 9.87658C108.732 9.24685 108.38 8.77565 107.87 8.47766L107.452 8.23253L107.914 8.08868C108.07 8.04024 108.226 7.97563 108.39 7.89049L108.408 7.88168C108.43 7.86993 108.452 7.85819 108.474 7.84645L108.481 7.84057C109.272 7.39139 109.795 6.45048 109.912 5.26001C109.917 5.21156 109.921 5.16607 109.924 5.1235V5.10146L109.927 5.07505C109.936 4.93119 109.936 4.8343 109.934 4.80347C109.934 4.79613 109.934 4.78734 109.934 4.78C109.934 2.1539 108.375 0.708008 105.544 0.708008H95.0835V15.3871H97.8402V9.6417H104.368C105.18 9.6417 105.908 10.1144 106.225 10.8469C106.276 10.9658 106.322 11.092 106.36 11.2226L106.363 11.2212ZM105.095 7.14188H97.8431V3.22693H105.052C106.491 3.22693 107.16 3.84198 107.16 5.1631C107.16 6.48422 106.447 7.14188 105.095 7.14188Z" fill="white"/>
</g>
</svg>
