<svg width="60" height="60" viewBox="0 0 60 60" fill="none" xmlns="http://www.w3.org/2000/svg">
<g id="Group 11042">
<path id="Vector" d="M3.85648 54.2887C3.1219 54.2887 2.4608 54.1227 1.87315 53.7907C1.29216 53.4514 0.834731 52.9823 0.500843 52.3831C0.166955 51.7842 0 51.1056 0 50.3477C0 49.5899 0.166955 48.9113 0.500843 48.3123C0.834731 47.7132 1.29216 47.2476 1.87315 46.9157C2.4608 46.5764 3.1219 46.4067 3.85648 46.4067C4.49756 46.4067 5.07517 46.5294 5.58938 46.7749C6.10358 47.0202 6.53096 47.3739 6.87153 47.8358L5.60942 49.0702C5.15532 48.4782 4.60438 48.1823 3.95665 48.1823C3.576 48.1823 3.23543 48.2725 2.93492 48.4531C2.6411 48.6335 2.41071 48.8898 2.24377 49.2217C2.0835 49.5465 2.00337 49.9218 2.00337 50.3477C2.00337 50.7737 2.0835 51.1526 2.24377 51.4845C2.41071 51.8093 2.6411 52.062 2.93492 52.2424C3.23543 52.423 3.576 52.5132 3.95665 52.5132C4.60438 52.5132 5.15532 52.2173 5.60942 51.6253L6.87153 52.8596C6.53096 53.3216 6.10358 53.6752 5.58938 53.9205C5.07517 54.1661 4.49756 54.2887 3.85648 54.2887ZM12.4542 52.6647H9.48919L8.93827 54.1372H6.91488L10.0101 46.5583H11.9633L15.0685 54.1372H13.0051L12.4542 52.6647ZM11.8731 51.0839L10.9718 48.6588L10.0702 51.0839H11.8731ZM18.9541 46.5583C19.5884 46.5583 20.1393 46.6738 20.6067 46.9047C21.0742 47.1286 21.435 47.4533 21.6887 47.8792C21.9425 48.2978 22.0693 48.7922 22.0693 49.3625C22.0693 49.9328 21.9425 50.4272 21.6887 50.8457C21.435 51.2645 21.0742 51.5893 20.6067 51.8202C20.1393 52.044 19.5884 52.1557 18.9541 52.1557H17.7319V54.1372H15.7486V46.5583H18.9541ZM18.8339 50.4668C19.2411 50.4668 19.5484 50.373 19.7553 50.1852C19.9625 49.9905 20.066 49.7161 20.066 49.3625C20.066 49.0089 19.9625 48.7345 19.7553 48.5397C19.5484 48.3448 19.2411 48.2474 18.8339 48.2474H17.7319V50.4668H18.8339ZM23.1541 46.5583H25.1374V54.1372H23.1541V46.5583ZM28.1589 48.2582H26.0053V46.5583H32.2858V48.2582H30.1423V54.1372H28.1589V48.2582ZM37.4883 52.6647H34.5233L33.9724 54.1372H31.949L35.044 46.5583H36.9975L40.1026 54.1372H38.0392L37.4883 52.6647ZM36.9073 51.0839L36.0057 48.6588L35.1043 51.0839H36.9073ZM40.7827 46.5583H42.7661V52.4373H46.1117V54.1372H40.7827V46.5583ZM3.03163 41.9269H1.96164V43.9568H0V36.3172H3.17033C3.79779 36.3172 4.34268 36.4335 4.80502 36.6664C5.26735 36.8919 5.62403 37.2194 5.87501 37.6487C6.12599 38.0706 6.25149 38.569 6.25149 39.1439C6.25149 39.6967 6.1326 40.1806 5.89482 40.5954C5.66365 41.0027 5.33012 41.3229 4.89418 41.5557L6.39018 43.9568H4.28984L3.03163 41.9269ZM4.27003 39.1439C4.27003 38.7874 4.16765 38.5109 3.96291 38.3144C3.75817 38.118 3.45433 38.0198 3.05144 38.0198H1.96164V40.2571H3.05144C3.45433 40.2571 3.75817 40.1625 3.96291 39.9732C4.16765 39.7768 4.27003 39.5003 4.27003 39.1439ZM13.0181 42.287V43.9568H7.45026V36.3172H12.8894V37.9869H9.39208V39.2748H12.4733V40.89H9.39208V42.287H13.0181ZM17.3937 36.3172C18.0211 36.3172 18.5659 36.4335 19.0282 36.6664C19.4906 36.8919 19.8472 37.2194 20.0982 37.6487C20.3492 38.0706 20.4748 38.569 20.4748 39.1439C20.4748 39.7187 20.3492 40.2171 20.0982 40.639C19.8472 41.0611 19.4906 41.3884 19.0282 41.6213C18.5659 41.8468 18.0211 41.9595 17.3937 41.9595H16.1848V43.9568H14.2232V36.3172H17.3937ZM17.2746 40.2571C17.6776 40.2571 17.9815 40.1625 18.1861 39.9732C18.3909 39.7768 18.4934 39.5003 18.4934 39.1439C18.4934 38.7874 18.3909 38.5109 18.1861 38.3144C17.9815 38.118 17.6776 38.0198 17.2746 38.0198H16.1848V40.2571H17.2746ZM24.6801 44.1096C23.6497 44.1096 22.8472 43.8004 22.2725 43.1819C21.7045 42.5635 21.4207 41.6868 21.4207 40.5517V36.3172H23.3823V40.4862C23.3823 41.7085 23.8215 42.3197 24.6999 42.3197C25.5718 42.3197 26.0076 41.7085 26.0076 40.4862V36.3172H27.9395V40.5517C27.9395 41.6868 27.6523 42.5635 27.0776 43.1819C26.5096 43.8004 25.7104 44.1096 24.6801 44.1096ZM34.7151 39.9732C35.1115 40.126 35.4219 40.3661 35.6464 40.6936C35.871 41.0137 35.9831 41.4029 35.9831 41.8613C35.9831 42.5307 35.7389 43.0474 35.2502 43.4112C34.7614 43.7749 34.0546 43.9568 33.13 43.9568H29.385V36.3172H32.9317C33.8169 36.3172 34.4906 36.4991 34.9528 36.8628C35.4152 37.2194 35.6464 37.7033 35.6464 38.3144C35.6464 38.6782 35.5638 39.0057 35.3987 39.2967C35.2403 39.5804 35.0122 39.8059 34.7151 39.9732ZM31.3269 37.8778V39.3511H32.6742C33.3347 39.3511 33.6649 39.1039 33.6649 38.6091C33.6649 38.1216 33.3347 37.8778 32.6742 37.8778H31.3269ZM32.9713 42.3962C33.6584 42.3962 34.0017 42.1378 34.0017 41.6213C34.0017 41.1047 33.6584 40.8464 32.9713 40.8464H31.3269V42.3962H32.9713ZM37.1159 36.3172H39.0776V42.2434H42.3865V43.9568H37.1159V36.3172ZM43.2792 36.3172H45.2409V43.9568H43.2792V36.3172ZM50.2107 44.1096C49.4843 44.1096 48.8303 43.9423 48.2491 43.6076C47.6744 43.2655 47.2221 42.7926 46.8919 42.1888C46.5616 41.5848 46.3964 40.9009 46.3964 40.137C46.3964 39.373 46.5616 38.6891 46.8919 38.0851C47.2221 37.4813 47.6744 37.012 48.2491 36.6773C48.8303 36.3353 49.4843 36.1644 50.2107 36.1644C50.8449 36.1644 51.4162 36.2881 51.9248 36.5355C52.4333 36.7829 52.8561 37.1393 53.1928 37.6051L51.9446 38.8491C51.4955 38.2525 50.9505 37.9543 50.3098 37.9543C49.9334 37.9543 49.5964 38.0451 49.2993 38.2272C49.0086 38.4091 48.7808 38.6672 48.6156 39.0019C48.4571 39.3294 48.3779 39.7077 48.3779 40.137C48.3779 40.5663 48.4571 40.9482 48.6156 41.283C48.7808 41.6103 49.0086 41.8649 49.2993 42.0468C49.5964 42.2289 49.9334 42.3197 50.3098 42.3197C50.9505 42.3197 51.4955 42.0215 51.9446 41.4249L53.1928 42.6689C52.8561 43.1347 52.4333 43.491 51.9248 43.7385C51.4162 43.9859 50.8449 44.1096 50.2107 44.1096ZM60 1.88605V0H1.88599V1.88605H60ZM60 60H58.114V1.88605H60V60ZM0 60V58.114H58.114V60H0ZM0 58.114V56.1808H2.00392V58.114H0Z" fill="white"/>
<path id="Vector_2" d="M1.93319 0H0V34.3026H1.93319V0Z" fill="white"/>
</g>
</svg>
