<svg width="161" height="120" viewBox="0 0 161 120" fill="none" xmlns="http://www.w3.org/2000/svg">
<g id="Group 11055">
<path id="Vector" d="M57.49 12.4301H79.57C94.34 12.4301 119.13 16.7301 119.13 45.5101C119.13 63.8601 105.49 75.7101 84.37 75.7101H38.49V86.8301H85.57C108.09 86.8301 121.53 98.8401 121.53 118.95C121.53 119.29 121.53 119.64 121.51 120H134.31C134.31 119.81 134.32 119.62 134.32 119.43C134.32 103.74 124.77 90.8601 113.61 85.5701C107.58 82.7101 101.99 81.3901 101.99 81.3901C101.99 81.3901 107.29 79.5201 113.24 76.1401C124.18 69.9101 131.92 59.6001 131.92 44.3101C131.92 16.2701 112.73 0.830078 77.88 0.830078H58.92C26.94 0.830078 4.42 16.7901 0 41.9501H14.07C17.95 23.1201 33.52 12.4301 57.48 12.4301H57.49Z" fill="white"/>
</g>
</svg>
