<svg width="44" height="44" viewBox="0 0 44 44" fill="none" xmlns="http://www.w3.org/2000/svg">
<g id="Group 11107">
<path id="Vector" d="M21.9189 24.6514L13.964 32.6063L11.3123 29.9547L18.2066 23.0604C18.7921 22.4749 19.7425 22.4749 20.328 23.0604L21.9189 24.6514Z" fill="white"/>
<path id="Vector_2" d="M18.2072 20.9393L11.3129 14.045L13.9645 11.3934L21.9195 19.3483L20.3285 20.9393C19.743 21.5248 18.7926 21.5248 18.2072 20.9393Z" fill="white"/>
<path id="Vector_3" d="M25.7941 23.0607L32.6883 29.955L30.0367 32.6066L22.0817 24.6517L23.6727 23.0607C24.2582 22.4752 25.2086 22.4752 25.7941 23.0607Z" fill="white"/>
<path id="Vector_4" d="M22.0811 19.3477L30.036 11.3927L32.6877 14.0444L25.7934 20.9386C25.2079 21.5241 24.2575 21.5241 23.672 20.9386L22.0811 19.3477Z" fill="white"/>
</g>
</svg>
