<svg width="182" height="50" viewBox="0 0 182 50" fill="none" xmlns="http://www.w3.org/2000/svg">
<g id="Layer_1">
<g id="Group">
<g id="Group_2">
<path id="Vector" d="M108.307 10.6527L108.251 10.0593C108.138 7.0641 106.88 6.4142 101.455 6.4142C94.3767 6.4142 92.8367 7.0641 92.8367 10.1441C92.8367 12.673 93.6986 13.6196 96.3264 13.8739C96.9481 13.9163 97.6404 14.0011 98.4315 14.0011C99.1803 14.0435 100.551 14.1282 102.599 14.213C110.13 14.5097 112.362 14.9477 114.142 16.4877C115.569 17.731 116.134 19.1862 116.134 21.9271C116.134 25.8265 115.499 27.6631 113.789 28.864C111.387 30.5312 108.646 30.9692 101.059 30.9692C93.5714 30.9692 91.1131 30.7149 88.895 29.5987C86.6062 28.4402 85.4053 26.3068 85.4053 23.128C85.4053 22.8737 85.4618 22.3933 85.4618 21.7575H92.427V22.3933C92.427 25.4733 93.5714 26.547 97.047 26.5894H100.424L101.455 26.6318C107.855 26.6318 108.943 25.9819 108.943 22.3933C108.943 19.5676 108.025 18.9177 103.574 18.7482L99.5759 18.5363C91.8054 18.1972 90.3784 17.9853 88.4429 16.742C86.4366 15.4987 85.5889 13.6196 85.5889 10.582C85.5889 7.02172 86.5073 4.93073 88.5559 3.85698C91.1272 2.52892 93.8116 2.14746 100.89 2.14746C107.233 2.14746 109.918 2.48654 111.966 3.56029C114.185 4.71881 115.216 6.64026 115.216 9.63545C115.216 9.88976 115.216 10.243 115.216 10.6668H108.307V10.6527Z" fill="white"/>
<path id="Vector_2" d="M134.642 30.8287H127.324V2.30371H134.642V30.8287Z" fill="white"/>
<path id="Vector_3" d="M179.245 15.6686L179.302 16.4881L179.358 20.9809V21.3623C179.358 26.1236 178.497 28.0026 175.699 29.4578C173.297 30.7435 170.613 31.0402 162.97 31.0402C155.199 31.0402 152.571 30.6587 150 29.034C147.089 27.1549 146.058 24.7955 146.058 19.6528V19.0594C146.115 17.6042 146.115 16.5304 146.115 15.9371C146.171 10.8367 146.284 9.98905 146.906 8.13825C147.527 6.38634 148.785 4.93113 150.381 3.98453C153.235 2.40216 155.355 2.10547 162.899 2.10547C171.517 2.10547 173.184 2.27501 175.629 3.47591C177.112 4.21058 178.2 5.41149 178.652 6.7678C179.104 8.09586 179.161 8.43494 179.217 10.9215H171.969L171.913 10.3564C171.63 7.10688 170.599 6.6689 162.828 6.6689C158.661 6.6689 156.654 6.92321 155.51 7.65788C154.026 8.60448 153.574 9.84777 153.574 13.3516L153.518 16.2196L153.574 19.9071C153.631 23.2838 153.97 24.4847 155.34 25.3465C156.598 26.1518 158.646 26.4202 163.224 26.4202C170.938 26.4202 172.082 25.728 172.082 20.7265C172.082 20.5146 172.082 20.2179 172.082 19.7376H162.433V15.6686H179.245Z" fill="white"/>
</g>
<path id="Vector_4" fill-rule="evenodd" clip-rule="evenodd" d="M1.69531 19.6953C4.05474 21.0799 5.31215 22.9589 10.2429 22.9589C15.1737 22.9589 18.2678 19.6953 24.1169 19.6953C30.0225 19.6953 33.2579 22.9589 39.1777 22.9589C45.0268 22.9589 47.3297 19.6953 52.981 19.6953C58.7029 19.6953 61.7829 22.9589 66.855 22.9589C71.927 22.9589 73.6224 20.9103 76.5187 19.6953V27.3528C73.6224 28.582 71.9129 30.5458 66.855 30.5458C61.797 30.5458 58.7029 27.2681 52.981 27.2681C47.3297 27.2681 45.0268 30.5458 39.1777 30.5458C33.2579 30.5458 30.0367 27.2681 24.1169 27.2681C18.2678 27.2681 15.1737 30.5458 10.2429 30.5458C5.31215 30.5458 4.06886 28.7374 1.69531 27.3528V19.6953Z" fill="white"/>
<path id="Vector_5" fill-rule="evenodd" clip-rule="evenodd" d="M1.69531 13.832V18.0281C4.05474 19.4127 5.31215 21.1787 10.2429 21.1787C15.1737 21.1787 18.2678 17.9434 24.1169 17.9434C30.0225 17.9434 33.2579 21.1787 39.1777 21.1787C45.0268 21.1787 47.3297 17.9434 52.981 17.9434C58.7029 17.9434 61.7829 21.1787 66.855 21.1787C71.927 21.1787 73.6224 19.2573 76.5187 18.0281V13.832C73.6224 15.0612 71.9129 17.0674 66.855 17.0674C61.797 17.0674 58.7029 13.832 52.981 13.832C47.3297 13.832 45.0268 17.0674 39.1777 17.0674C33.2579 17.0674 30.0367 13.832 24.1169 13.832C18.2678 13.832 15.1737 17.0674 10.2429 17.0674C5.31215 17.0674 4.06886 15.2166 1.69531 13.832Z" fill="white"/>
<path id="Vector_6" fill-rule="evenodd" clip-rule="evenodd" d="M1.69531 9.55078V12.0091C4.05474 13.3513 5.31215 15.1597 10.2429 15.1597C15.1737 15.1597 18.2678 11.9243 24.1169 11.9243C30.0225 11.9243 33.2579 15.1597 39.1777 15.1597C45.0268 15.1597 47.3297 11.9243 52.981 11.9243C58.7029 11.9243 61.7829 15.1597 66.855 15.1597C71.927 15.1597 73.6224 13.2383 76.5187 12.0091V9.55078C73.6224 10.7799 71.9129 12.7862 66.855 12.7862C61.797 12.7862 58.7029 9.55078 52.981 9.55078C47.3297 9.55078 45.0268 12.7862 39.1777 12.7862C33.2579 12.7862 30.0367 9.55078 24.1169 9.55078C18.2678 9.55078 15.1737 12.7862 10.2429 12.7862C5.31215 12.7862 4.06886 10.9354 1.69531 9.55078Z" fill="white"/>
<path id="Vector_7" d="M78.0022 28.7086C78.5814 28.7086 79.09 28.9064 79.4856 29.302C79.8812 29.6693 80.079 30.1497 80.079 30.7007C80.079 31.2093 79.853 31.6897 79.4715 32.0429C79.0618 32.4102 78.539 32.6221 78.0022 32.6221C77.4512 32.6221 76.9284 32.4102 76.5328 32.0288C76.1372 31.6614 75.9394 31.1811 75.9394 30.6583C75.9394 30.1356 76.1655 29.6411 76.5752 29.2596C76.9426 28.8923 77.437 28.7086 78.0022 28.7086ZM77.988 28.3271C77.098 28.3271 76.3209 28.751 75.8688 29.4574C75.6286 29.853 75.5015 30.2486 75.5015 30.6724C75.5015 31.28 75.7416 31.8592 76.2079 32.2972C76.6882 32.7493 77.3099 33.0036 77.9739 33.0036C78.6238 33.0036 79.2455 32.7634 79.74 32.3255C80.2062 31.9016 80.4746 31.3223 80.4746 30.6724C80.4746 30.0508 80.2344 29.4715 79.7682 29.0336C79.302 28.5673 78.6803 28.3271 77.988 28.3271ZM76.9708 29.3161V31.9157H77.6348V30.8561H77.9598L78.4967 31.9157H79.2455L78.6238 30.7572C79.0053 30.6724 79.2313 30.404 79.2313 30.0649C79.2313 29.5704 78.8357 29.3161 78.0446 29.3161H76.9708ZM77.6348 29.7259H77.9315C78.3413 29.7259 78.539 29.8389 78.539 30.1073C78.539 30.3616 78.3554 30.4746 77.9739 30.4746H77.649V29.7259H77.6348Z" fill="white"/>
<g id="Group_3">
<path id="Vector_8" d="M2.24609 44.0803H3.53177C3.56002 44.7585 3.78608 45.2671 4.23818 45.592C4.69029 45.917 5.35432 46.0865 6.2444 46.0865C7.00733 46.0865 7.60071 45.9594 8.02456 45.7051C8.44841 45.4507 8.64621 45.0834 8.64621 44.6172C8.64621 44.2781 8.53318 44.0097 8.30713 43.826C8.08107 43.6423 7.69961 43.4869 7.16274 43.4021L5.01524 43.0207C4.15341 42.8653 3.51764 42.611 3.12205 42.2436C2.72646 41.8763 2.52866 41.3677 2.52866 40.7319C2.52866 39.8983 2.83948 39.2484 3.47525 38.7963C4.11103 38.3442 5.00111 38.1182 6.17376 38.1182C7.27576 38.1182 8.12346 38.3583 8.71685 38.8246C9.31024 39.3049 9.60693 39.969 9.62106 40.8591H8.3919C8.34951 40.308 8.13759 39.8983 7.77025 39.644C7.38879 39.3756 6.82366 39.2484 6.07486 39.2484C5.34019 39.2484 4.77506 39.3615 4.39359 39.6016C4.01213 39.8418 3.81433 40.1809 3.81433 40.6189C3.81433 40.9438 3.92736 41.1981 4.13928 41.3677C4.36534 41.5372 4.76093 41.6926 5.34019 41.8056L7.24751 42.1871C8.25061 42.3849 8.9429 42.6533 9.33849 43.0066C9.73408 43.3598 9.93188 43.8684 9.93188 44.5324C9.93188 45.3942 9.60693 46.0583 8.95703 46.5245C8.30713 47.0049 7.38879 47.2309 6.18788 47.2309C4.90221 47.2309 3.92736 46.9625 3.26333 46.4397C2.5993 45.917 2.26022 45.1258 2.24609 44.0803Z" fill="white"/>
<path id="Vector_9" d="M26.4618 38.3584V43.7837C26.4618 44.9139 26.1368 45.7616 25.4869 46.355C24.837 46.9484 23.8904 47.231 22.633 47.231C21.3756 47.231 20.429 46.9343 19.7932 46.355C19.1433 45.7616 18.8184 44.9139 18.8184 43.7837V38.3584H20.0334V43.2609C20.0334 44.2075 20.2453 44.9139 20.6692 45.366C21.093 45.8181 21.7429 46.0442 22.633 46.0442C23.5231 46.0442 24.1871 45.8181 24.611 45.366C25.0348 44.9139 25.2467 44.2075 25.2467 43.2609V38.3584H26.4618Z" fill="white"/>
<path id="Vector_10" d="M35.4336 44.0803H36.7193C36.7475 44.7585 36.9736 45.2671 37.4257 45.592C37.8778 45.917 38.5418 46.0865 39.4319 46.0865C40.1948 46.0865 40.7882 45.9594 41.2121 45.7051C41.6359 45.4507 41.8337 45.0834 41.8337 44.6172C41.8337 44.2781 41.7207 44.0097 41.4946 43.826C41.2686 43.6423 40.8871 43.4869 40.3502 43.4021L38.2169 43.0207C37.355 42.8653 36.7193 42.611 36.3237 42.2436C35.9281 41.8763 35.7303 41.3677 35.7303 40.7319C35.7303 39.8983 36.0411 39.2484 36.6769 38.7963C37.3127 38.3442 38.2027 38.1182 39.3754 38.1182C40.4774 38.1182 41.3251 38.3583 41.9185 38.8246C42.5119 39.3049 42.8086 39.969 42.8227 40.8591H41.6077C41.5653 40.308 41.3533 39.8983 40.986 39.644C40.6045 39.3756 40.0394 39.2484 39.2906 39.2484C38.5559 39.2484 37.9908 39.3615 37.6094 39.6016C37.2138 39.8418 37.0301 40.1809 37.0301 40.6189C37.0301 40.9438 37.1431 41.1981 37.355 41.3677C37.5811 41.5372 37.9767 41.6926 38.5559 41.8056L40.4491 42.1871C41.4522 42.3849 42.1445 42.6533 42.5401 43.0066C42.9357 43.3598 43.1335 43.8684 43.1335 44.5324C43.1335 45.3942 42.8086 46.0583 42.1587 46.5245C41.5088 47.0049 40.5763 47.2309 39.3895 47.2309C38.1038 47.2309 37.129 46.9625 36.465 46.4397C35.7868 45.917 35.4477 45.1258 35.4336 44.0803Z" fill="white"/>
<path id="Vector_11" d="M58.6603 46.7364C58.3494 46.906 58.0245 47.0331 57.643 47.1038C57.2757 47.1744 56.8236 47.2168 56.2867 47.2168C54.8315 47.2168 53.6871 46.8071 52.8394 45.9876C51.9917 45.1682 51.5679 44.0662 51.5679 42.6675C51.5679 41.2688 51.9917 40.1668 52.8394 39.3473C53.6871 38.5279 54.8456 38.1182 56.3008 38.1182C57.7561 38.1182 58.9005 38.5279 59.7481 39.3473C60.5958 40.1668 61.0197 41.2829 61.0197 42.6675C61.0197 43.3739 60.8925 44.0379 60.6524 44.6313C60.4122 45.2247 60.059 45.7192 59.5927 46.1006L60.7654 47.0331L60.0731 47.9091L58.6603 46.7364ZM57.643 45.8887L56.7388 45.154L57.4029 44.3064L58.6744 45.3377C59.0276 45.0552 59.296 44.6878 59.4797 44.2357C59.6634 43.7695 59.7623 43.2609 59.7623 42.6816C59.7623 41.6079 59.4515 40.7743 58.8439 40.1809C58.2364 39.5875 57.3887 39.2767 56.3008 39.2767C55.213 39.2767 54.3653 39.5734 53.7578 40.1809C53.1502 40.7884 52.8394 41.622 52.8394 42.6816C52.8394 43.7553 53.1502 44.603 53.7578 45.1964C54.3794 45.7898 55.2412 46.0865 56.3715 46.0865C56.6399 46.0865 56.8801 46.0724 57.092 46.0441C57.2898 46.0017 57.4735 45.9594 57.643 45.8887Z" fill="white"/>
<path id="Vector_12" d="M77.5077 38.3584V43.7837C77.5077 44.9139 77.1827 45.7616 76.5328 46.355C75.8829 46.9484 74.9363 47.231 73.6789 47.231C72.4215 47.231 71.4749 46.9343 70.8391 46.355C70.1892 45.7616 69.8643 44.9139 69.8643 43.7837V38.3584H71.0793V43.2609C71.0793 44.2075 71.2912 44.9139 71.7151 45.366C72.1389 45.8181 72.7888 46.0442 73.6789 46.0442C74.569 46.0442 75.233 45.8181 75.6569 45.366C76.0807 44.9281 76.2926 44.2216 76.2926 43.275V38.3725H77.5077V38.3584Z" fill="white"/>
<path id="Vector_13" d="M86.8745 47.0045V38.3721H93.7409V39.4882H88.0895V42.0313H93.3876V43.1616H88.0895V45.8459H93.8256V47.0045H86.8745Z" fill="white"/>
<path id="Vector_14" d="M102.727 47.0045V38.3721H103.942V41.8618H109.211V38.3721H110.426V47.0045H109.211V42.992H103.942V47.0045H102.727Z" fill="white"/>
<path id="Vector_15" d="M118.706 47.0045L122.803 38.3721H124.088L127.931 47.0045H126.66L125.558 44.5461H121.15L119.991 47.0045H118.706ZM121.658 43.4159H125.049L123.396 39.7284L121.658 43.4159Z" fill="white"/>
<path id="Vector_16" d="M136.295 47.0045V38.3721H137.948L143.388 45.747V38.3721H144.575V47.0045H142.922L137.482 39.6295V47.0045H136.295Z" fill="white"/>
<path id="Vector_17" d="M153.927 47.0045V38.3721H155.58L161.02 45.747V38.3721H162.206V47.0045H160.553L155.114 39.6295V47.0045H153.927Z" fill="white"/>
<path id="Vector_18" d="M170.486 47.0045L174.583 38.3721H175.869L179.712 47.0045H178.44L177.338 44.5461H172.93L171.786 47.0045H170.486ZM173.439 43.4159H176.829L175.191 39.7284L173.439 43.4159Z" fill="white"/>
</g>
</g>
</g>
</svg>
