<svg width="146" height="16" viewBox="0 0 146 16" fill="none" xmlns="http://www.w3.org/2000/svg">
<g id="Music Token">
<path d="M0.855713 14.9262V0.781823H4.18024L9.39874 12.8912L14.6575 0.781823H17.9015V14.9262H15.9874V2.29297L10.4868 14.9262H8.27042L2.76984 2.23253V14.9262H0.855713Z" fill="white"/>
<path d="M26.0307 14.9262C23.4113 14.9262 21.4569 13.4956 21.4569 10.5539V0.781823H23.3912V10.2315C23.3912 12.2666 24.4792 13.0524 26.1516 13.0524H28.1261C29.7985 13.0524 30.9066 12.2666 30.9066 10.2315V0.781823H32.8208V10.5741C32.8208 13.4956 30.8663 14.9262 28.2672 14.9262H26.0307Z" fill="white"/>
<path d="M35.8881 14.9262V13.0524H43.5244C44.8139 13.0524 45.6602 12.2867 45.6602 10.977C45.6602 9.62708 44.7736 9.10322 43.4438 8.96218L39.5148 8.53906C37.238 8.29727 35.5859 7.26969 35.5859 4.67052C35.5859 2.13178 37.4798 0.781823 39.7768 0.781823H47.0706V2.65565H39.8574C38.3462 2.65565 37.5201 3.381 37.5201 4.67052C37.5201 6.02047 38.3865 6.56449 39.8775 6.72568L43.7662 7.12865C45.9826 7.35029 47.5945 8.47861 47.5945 10.977C47.5945 13.3143 45.902 14.9262 43.5647 14.9262H35.8881Z" fill="white"/>
<path d="M50.3419 14.9262V0.781823H52.3165V14.9262H50.3419Z" fill="white"/>
<path d="M62.0163 14.9262C57.906 14.9262 54.9845 12.327 54.9845 7.854C54.9845 3.3407 57.906 0.781823 62.0163 0.781823H66.8923V2.65565H62.1171C59.0948 2.65565 56.959 4.38843 56.959 7.83385C56.959 11.2994 59.0948 13.0524 62.1171 13.0524H66.8923V14.9262H62.0163Z" fill="white"/>
<path d="M80.1951 14.9262V2.65565H74.5535V0.781823H87.7912V2.65565H82.1697V14.9262H80.1951Z" fill="white"/>
<path d="M95.4897 15.168C91.2988 15.168 88.2966 12.0651 88.2966 7.83385C88.2966 3.64293 91.2988 0.540039 95.4897 0.540039H95.5098C99.7209 0.540039 102.743 3.64293 102.743 7.83385C102.743 12.0651 99.7209 15.168 95.5098 15.168H95.4897ZM90.251 7.854C90.251 11.1181 92.4473 13.2941 95.4897 13.2941H95.5098C98.5724 13.2941 100.789 11.1181 100.789 7.854C100.789 4.63022 98.5724 2.41386 95.5098 2.41386H95.4897C92.4473 2.41386 90.251 4.63022 90.251 7.854Z" fill="white"/>
<path d="M114.887 14.9262L107.331 8.35772V14.9262H105.397V0.781823H107.331V7.35029L114.907 0.781823H117.566L109.406 7.73311L117.627 14.9262H114.887Z" fill="white"/>
<path d="M119.603 14.9262V0.781823H130.503V2.65565H121.537V6.90702H130.503V8.78084H121.537V13.0524H130.503V14.9262H119.603Z" fill="white"/>
<path d="M133.672 14.9262V0.781823H136.734L144.028 12.4479V0.781823H145.942V14.9262H143.343L135.606 2.53476V14.9262H133.672Z" fill="white"/>
</g>
</svg>
