<svg width="225" height="16" viewBox="0 0 225 16" fill="none" xmlns="http://www.w3.org/2000/svg">
<g id="Real Estate Token">
<path d="M0.855713 14.9262V0.781823H8.61295C11.4539 0.781823 12.8442 2.23253 12.8442 4.67052C12.8442 6.06077 12.2196 7.30999 11.0912 7.71296C12.2196 7.8943 12.7233 8.74054 12.7233 9.78827V14.9262H10.8092V10.3524C10.8092 9.56664 10.6077 8.98233 9.45919 8.98233H2.78998V14.9262H0.855713ZM2.78998 7.12865H8.43161C10.2651 7.12865 10.9099 6.16151 10.9099 4.872C10.9099 3.44145 10.2651 2.6355 8.39131 2.6355H2.78998V7.12865Z" fill="white"/>
<path d="M16.2033 14.9262V0.781823H27.1037V2.65565H18.1376V6.90702H27.1037V8.78084H18.1376V13.0524H27.1037V14.9262H16.2033Z" fill="white"/>
<path d="M28.8817 14.9262L35.1681 0.781823H38.1501L44.3357 14.9262H42.1395L40.3866 10.8763H32.8308L31.0376 14.9262H28.8817ZM33.6166 9.06292H39.6008L36.6389 2.21238L33.6166 9.06292Z" fill="white"/>
<path d="M46.4853 14.9262V0.781823H48.4599V13.0524H56.6806V14.9262H46.4853Z" fill="white"/>
<path d="M64.9222 14.9262V0.781823H75.8226V2.65565H66.8564V6.90702H75.8226V8.78084H66.8564V13.0524H75.8226V14.9262H64.9222Z" fill="white"/>
<path d="M78.5072 14.9262V13.0524H86.1436C87.4331 13.0524 88.2793 12.2867 88.2793 10.977C88.2793 9.62708 87.3928 9.10322 86.063 8.96218L82.134 8.53906C79.8572 8.29727 78.205 7.26969 78.205 4.67052C78.205 2.13178 80.099 0.781823 82.3959 0.781823H89.6897V2.65565H82.4765C80.9654 2.65565 80.1393 3.381 80.1393 4.67052C80.1393 6.02047 81.0057 6.56449 82.4967 6.72568L86.3853 7.12865C88.6017 7.35029 90.2136 8.47861 90.2136 10.977C90.2136 13.3143 88.5211 14.9262 86.1839 14.9262H78.5072Z" fill="white"/>
<path d="M97.3333 14.9262V2.65565H91.6917V0.781823H104.929V2.65565H99.3079V14.9262H97.3333Z" fill="white"/>
<path d="M103.987 14.9262L110.273 0.781823H113.255L119.441 14.9262H117.244L115.492 10.8763H107.936L106.143 14.9262H103.987ZM108.722 9.06292H114.706L111.744 2.21238L108.722 9.06292Z" fill="white"/>
<path d="M124.133 14.9262V2.65565H118.491V0.781823H131.729V2.65565H126.107V14.9262H124.133Z" fill="white"/>
<path d="M134.006 14.9262V0.781823H144.907V2.65565H135.94V6.90702H144.907V8.78084H135.94V13.0524H144.907V14.9262H134.006Z" fill="white"/>
<path d="M158.507 14.9262V2.65565H152.866V0.781823H166.103V2.65565H160.482V14.9262H158.507Z" fill="white"/>
<path d="M173.802 15.168C169.611 15.168 166.609 12.0651 166.609 7.83385C166.609 3.64293 169.611 0.540039 173.802 0.540039H173.822C178.033 0.540039 181.055 3.64293 181.055 7.83385C181.055 12.0651 178.033 15.168 173.822 15.168H173.802ZM168.563 7.854C168.563 11.1181 170.759 13.2941 173.802 13.2941H173.822C176.885 13.2941 179.101 11.1181 179.101 7.854C179.101 4.63022 176.885 2.41386 173.822 2.41386H173.802C170.759 2.41386 168.563 4.63022 168.563 7.854Z" fill="white"/>
<path d="M193.199 14.9262L185.643 8.35772V14.9262H183.709V0.781823H185.643V7.35029L193.219 0.781823H195.879L187.718 7.73311L195.939 14.9262H193.199Z" fill="white"/>
<path d="M197.915 14.9262V0.781823H208.816V2.65565H199.849V6.90702H208.816V8.78084H199.849V13.0524H208.816V14.9262H197.915Z" fill="white"/>
<path d="M211.984 14.9262V0.781823H215.046L222.34 12.4479V0.781823H224.254V14.9262H221.655L213.918 2.53476V14.9262H211.984Z" fill="white"/>
</g>
</svg>
