<svg width="34" height="34" viewBox="0 0 34 34" fill="none" xmlns="http://www.w3.org/2000/svg">
<g id="Tomei-TokenSymbol">
<path id="Vector" d="M17.0004 3.26254C24.5876 3.26254 30.7375 9.41244 30.7375 16.9996C30.7375 24.5867 24.5876 30.7366 17.0004 30.7366C9.4133 30.7366 3.2634 24.5867 3.2634 16.9996C3.2634 9.41244 9.4133 3.26254 17.0004 3.26254ZM17.0004 0C14.7072 0 12.4801 0.449888 10.3826 1.33764C8.35812 2.19363 6.54054 3.41966 4.97967 4.97967C3.41966 6.53968 2.19449 8.35726 1.33764 10.3826C0.450746 12.4801 0 14.7072 0 17.0004C0 19.2937 0.449888 21.5208 1.33764 23.6182C2.19363 25.6427 3.41966 27.4603 4.97967 29.0203C6.53968 30.5803 8.35726 31.8055 10.3826 32.6624C12.4801 33.5501 14.7072 34 17.0004 34C19.2937 34 21.5208 33.5501 23.6182 32.6624C25.6427 31.8064 27.4603 30.5803 29.0212 29.0203C30.5821 27.4603 31.8064 25.6427 32.6632 23.6182C33.5501 21.5199 34.0009 19.2937 34.0009 17.0004C34.0009 14.7072 33.551 12.4801 32.6632 10.3826C31.8072 8.35812 30.5812 6.54054 29.0212 4.97967C27.4612 3.41966 25.6436 2.19449 23.6182 1.33764C21.5208 0.450746 19.2937 0 17.0004 0Z" fill="white"/>
<path id="Vector_2" d="M7.55566 15.389V12.3408H11.996C13.8415 12.3408 15.6642 13.1319 16.8903 14.5114C17.9436 15.6963 18.5235 17.2219 18.5235 18.8074V25.0586H15.4768V18.9914C15.4768 17.0018 13.864 15.3887 11.8742 15.3887H7.55566V15.389ZM26.445 12.3408H18.4415V15.3875H26.445V12.3408Z" fill="white"/>
</g>
</svg>
